<?xml version="1.0" encoding="UTF-8" standalone="no"?>
<svg
   fill="none"
   height="250"
   viewBox="0 0 1136 250"
   width="1136"
   version="1.1"
   id="svg67"
   sodipodi:docname="tradespace-lettermark-blue.svg"
   inkscape:version="1.2.2 (b0a8486541, 2022-12-01)"
   xmlns:inkscape="http://www.inkscape.org/namespaces/inkscape"
   xmlns:sodipodi="http://sodipodi.sourceforge.net/DTD/sodipodi-0.dtd"
   xmlns="http://www.w3.org/2000/svg"
   xmlns:svg="http://www.w3.org/2000/svg">
  <defs
     id="defs71" />
  <sodipodi:namedview
     id="namedview69"
     pagecolor="#505050"
     bordercolor="#eeeeee"
     borderopacity="1"
     inkscape:showpageshadow="0"
     inkscape:pageopacity="0"
     inkscape:pagecheckerboard="0"
     inkscape:deskcolor="#505050"
     showgrid="false"
     inkscape:zoom="1.7709163"
     inkscape:cx="826.69066"
     inkscape:cy="125.07649"
     inkscape:window-width="1920"
     inkscape:window-height="1011"
     inkscape:window-x="0"
     inkscape:window-y="32"
     inkscape:window-maximized="1"
     inkscape:current-layer="svg67" />
  <rect
     fill="#3178c6"
     height="250"
     rx="15.801159"
     width="1133.1688"
     id="rect63"
     x="1.5400678"
     y="0.22816026"
     style="stroke-width:1.06238" />
  <g
     aria-label="TradeSpace"
     id="text231"
     style="font-weight:300;font-size:173.854px;line-height:1.25;font-family:Segan;-inkscape-font-specification:'Segan Light';letter-spacing:-4.12832px;fill:#ffffff;stroke-width:4.34634"
     transform="translate(136.99039,0.22816026)">
    <path
       d="m 167.14204,191.22575 h 23.47029 V 94.21522 H 223.9923 V 75.265133 H 134.10978 V 94.21522 h 33.03226 z"
       style="font-weight:bold;font-family:'CartoGothic Std';-inkscape-font-specification:'CartoGothic Std Bold'"
       id="path962" />
    <path
       d="m 223.34094,191.22575 h 22.25331 v -35.46621 c 0,-11.12666 1.04312,-16.68999 3.82479,-21.21019 3.65093,-6.08489 10.08353,-9.56197 17.03769,-9.56197 2.60781,0 4.34635,0.34771 7.64957,1.21698 v -20.68863 c -2.60781,-0.86927 -3.99864,-1.04312 -6.60645,-1.04312 -11.82207,0 -20.16706,7.64957 -24.1657,22.60102 l -0.34771,-21.90561 h -20.34092 c 0.34771,4.34635 0.69542,12.8652 0.69542,25.90425 z"
       style="font-weight:bold;font-family:'CartoGothic Std';-inkscape-font-specification:'CartoGothic Std Bold'"
       id="path959" />
    <path
       d="m 333.08685,191.22575 h 19.81936 c -0.52156,-10.60509 -0.86927,-22.42716 -0.86927,-31.29372 v -12.51749 c 0,-18.60237 -1.21698,-25.20883 -5.38947,-31.29372 -5.73719,-7.99728 -17.21155,-12.51748 -31.64143,-12.51748 -10.43124,0 -20.51478,2.08624 -29.72904,6.08489 l 0.69542,19.12394 c 7.47572,-5.73719 17.73311,-9.38812 26.59966,-9.38812 12.69134,0 19.12394,6.08489 19.12394,18.25467 v 0.86927 c -6.08489,-0.52156 -9.21426,-0.69542 -12.51749,-0.69542 -28.68591,0 -43.11579,9.38812 -43.11579,27.81665 0,16.34227 11.47436,26.94737 29.20747,26.94737 12.69135,0 21.90561,-4.86792 27.46894,-14.08218 z M 298.1422,166.36463 c 0,-9.73582 9.21426,-14.60374 27.81664,-14.60374 1.73854,0 3.99864,0.17386 6.08489,0.34771 0,6.25875 -0.69542,9.90968 -2.2601,13.38676 -3.47708,7.30187 -10.43124,11.99593 -18.25467,11.99593 -7.99729,0 -13.38676,-4.52021 -13.38676,-11.12666 z"
       style="font-weight:bold;font-family:'CartoGothic Std';-inkscape-font-specification:'CartoGothic Std Bold'"
       id="path956" />
    <path
       d="m 429.09835,191.22575 h 21.03634 c -0.34771,-6.08489 -0.69542,-14.42988 -0.69542,-25.03497 V 66.050871 h -22.25331 v 38.247879 c 0,5.04177 0.34771,10.43124 0.86927,15.1253 -5.91104,-10.60509 -14.60374,-15.82071 -26.77352,-15.82071 -21.38404,0 -35.64007,17.21154 -35.64007,43.11579 0,28.85976 13.38676,45.89746 35.98778,45.89746 13.21291,0 21.73175,-5.04177 27.12123,-15.99457 z m -21.03633,-16.16842 c -11.64822,0 -19.29779,-10.77895 -19.29779,-27.29508 0,-15.64686 7.12801,-25.55654 18.42852,-25.55654 12.16978,0 20.34092,10.6051 20.34092,26.77352 0,15.47301 -7.99729,26.0781 -19.47165,26.0781 z"
       style="font-weight:bold;font-family:'CartoGothic Std';-inkscape-font-specification:'CartoGothic Std Bold'"
       id="path953" />
    <path
       d="m 537.80118,168.10317 c -10.77895,6.4326 -18.08081,8.86656 -26.94737,8.86656 -14.60374,0 -24.33956,-8.345 -25.38268,-21.73176 h 57.89338 c 0.34771,-3.65093 0.52156,-7.99728 0.52156,-9.73582 0,-26.42581 -14.77759,-42.59423 -38.76944,-42.59423 -25.38269,0 -41.55111,17.55925 -41.55111,45.02819 0,28.85976 16.51613,45.54975 44.68048,45.54975 11.12666,0 21.03634,-2.08625 29.90289,-6.08489 z m -52.67776,-28.3382 c 1.39083,-13.21291 8.6927,-21.21019 19.47165,-21.21019 11.12665,0 17.90696,7.82343 18.08081,21.21019 z"
       style="font-weight:bold;font-family:'CartoGothic Std';-inkscape-font-specification:'CartoGothic Std Bold'"
       id="path950" />
    <path
       d="m 622.68608,160.4536 q 0,6.7803 -2.60781,12.69134 -2.60781,5.91103 -7.64957,10.43124 -5.04177,4.34635 -12.51749,6.95416 -7.47572,2.43395 -17.03769,2.43395 -6.60645,0 -13.73447,-1.56468 -6.95416,-1.39083 -11.64822,-3.47708 0.17386,-2.43396 0.34771,-4.69406 0.34771,-2.2601 0.52156,-4.69406 5.91104,3.12937 12.34364,4.86791 6.60645,1.73854 12.51749,1.73854 13.90832,0 22.07945,-6.08489 8.17114,-6.08489 8.17114,-17.21154 0,-5.21562 -1.56468,-9.04041 -1.56469,-3.82479 -4.69406,-6.78031 -3.12937,-3.12937 -7.64958,-5.73718 -4.5202,-2.60781 -10.25738,-5.73718 -6.60646,-3.47708 -12.34364,-6.60645 -5.73718,-3.30323 -10.08353,-6.95416 -4.34635,-3.82479 -6.95416,-8.6927 -2.43396,-4.86792 -2.43396,-11.47437 0,-6.258742 2.43396,-11.822071 2.43396,-5.737182 7.12801,-9.909678 4.69406,-4.34635 11.64822,-6.780306 6.95416,-2.60781 16.16842,-2.60781 5.73719,0 11.47437,1.043124 5.91103,0.86927 9.90968,1.912394 -0.34771,2.260102 -0.52157,4.520204 0,2.086248 -0.3477,4.34635 -4.1725,-1.73854 -9.73583,-2.955518 -5.56333,-1.216978 -11.64822,-1.216978 -13.90832,0 -20.68862,6.432598 -6.78031,6.432599 -6.78031,15.994569 0,5.215622 1.73854,9.040412 1.9124,3.65093 5.04177,6.60645 3.30322,2.95552 7.64957,5.56333 4.52021,2.60781 9.73583,5.56332 6.25874,3.30323 11.99592,6.4326 5.91104,3.12937 10.25739,6.95416 4.5202,3.82479 7.12801,8.86656 2.60781,4.86791 2.60781,11.64822 z"
       id="path947" />
    <path
       d="m 718.87143,144.63288 q 0,10.43124 -2.78166,19.47165 -2.78167,8.86655 -7.82343,15.47301 -5.04177,6.43259 -12.34364,10.08353 -7.12801,3.65093 -16.16842,3.65093 -5.91104,0 -10.60509,-1.73854 -4.52021,-1.56468 -8.17114,-3.99864 -3.47708,-2.60781 -5.91104,-5.73718 -2.2601,-3.12937 -3.82479,-6.08489 h -0.3477 v 53.54703 l -7.82343,1.73854 V 104.29875 h 7.82343 v 17.90696 h 0.3477 q 4.1725,-8.86655 12.69135,-14.42988 8.51884,-5.56333 19.81935,-5.56333 8.51885,0 14.95145,3.12938 6.60645,2.95551 10.9528,8.51884 4.5202,5.38948 6.78031,13.38676 2.43395,7.82343 2.43395,17.3854 z m -7.82343,0.17385 q 0,-8.51884 -2.08625,-15.12529 -2.08624,-6.60646 -5.91103,-11.12666 -3.82479,-4.5202 -9.04041,-6.78031 -5.04177,-2.43395 -11.30051,-2.43395 -9.21426,0 -15.29915,3.47708 -6.08489,3.47708 -9.73583,8.6927 -3.65093,5.04176 -5.21562,11.12665 -1.56468,5.91104 -1.56468,10.77895 v 10.9528 q 0,5.56333 1.73854,11.30052 1.91239,5.73718 5.56332,10.25738 3.82479,4.52021 9.38812,7.47572 5.56333,2.78167 13.2129,2.78167 6.78031,0 12.34364,-2.95552 5.56333,-3.12937 9.56197,-8.51885 3.99864,-5.56332 6.08489,-13.03905 2.2601,-7.64957 2.2601,-16.86384 z"
       id="path944" />
    <path
       d="m 787.24011,191.22575 v -18.25467 h -0.34771 q -3.47708,8.86656 -11.64822,14.42989 -7.99728,5.56332 -18.77623,5.56332 -5.91104,0 -10.6051,-1.91239 -4.5202,-1.91239 -7.82343,-5.04177 -3.12937,-3.12937 -4.86791,-7.30186 -1.56468,-4.34635 -1.56468,-9.04041 0,-7.64958 3.12937,-12.69134 3.30322,-5.21563 10.08353,-8.69271 6.78031,-3.47708 17.21155,-5.56332 10.43124,-2.08625 24.68726,-3.47708 0,-14.95145 -4.5202,-21.90561 -4.34635,-7.12801 -16.51613,-7.12801 -7.12801,0 -14.25603,2.60781 -6.95416,2.60781 -12.51749,6.7803 -0.3477,-2.08624 -0.69541,-4.34635 -0.34771,-2.2601 -0.69542,-4.34635 5.38948,-3.12937 13.21291,-5.56332 7.82343,-2.60781 15.99456,-2.60781 15.29916,0 22.07946,7.99728 6.78031,7.82343 6.60645,22.42717 l -0.3477,32.68455 q -0.17386,6.25874 -0.17386,13.2129 0,6.95416 0.69542,12.16978 z m -0.52157,-44.85433 q -13.56061,1.39083 -22.42716,3.12937 -8.86656,1.56469 -14.08218,4.1725 -5.21562,2.43395 -7.47572,6.08489 -2.08625,3.65093 -2.08625,8.86655 0,6.78031 4.34635,11.99593 4.52021,5.04177 13.03905,5.04177 6.25875,0 11.47437,-2.60781 5.38947,-2.60781 9.04041,-7.12802 3.82478,-4.69406 5.91103,-10.77895 2.2601,-6.08489 2.2601,-13.03905 z"
       id="path941" />
    <path
       d="m 878.03601,187.22711 q -4.69406,2.2601 -11.30051,3.99864 -6.60645,1.56469 -14.25603,1.56469 -7.64957,0 -14.60373,-2.43396 -6.78031,-2.60781 -11.99593,-7.82343 -5.21562,-5.38947 -8.34499,-13.38675 -2.95552,-8.17114 -2.95552,-19.12395 0,-10.77894 2.95552,-19.47164 2.95552,-8.6927 8.34499,-14.77759 5.38947,-6.25875 13.03905,-9.56197 7.64958,-3.30323 17.21155,-3.30323 6.4326,0 11.99592,1.21698 5.56333,1.04312 9.73583,2.78166 l -1.21698,8.34499 q -4.1725,-1.91239 -9.90968,-3.47708 -5.56333,-1.73854 -12.16978,-1.73854 -7.30187,0 -13.03905,2.95552 -5.56333,2.95552 -9.56197,8.17114 -3.99864,5.04177 -6.08489,12.16978 -2.08625,7.12801 -2.08625,15.47301 0,8.17114 1.56469,14.95144 1.73854,6.60645 5.38947,11.47437 3.65094,4.86791 9.21426,7.64957 5.73719,2.60781 13.73447,2.60781 6.95416,0 12.69134,-1.73854 5.91104,-1.73854 10.43124,-4.34635 z"
       id="path938" />
    <path
       d="m 958.57451,141.85122 q 0,0.86927 0,1.91239 0,1.04312 -0.17385,2.43396 H 897.0302 v 1.91239 q 0,18.60238 7.82343,27.9905 7.99728,9.38811 22.77487,9.38811 7.30187,0 13.90832,-2.08625 6.60645,-2.2601 12.34363,-6.25874 0.34771,2.08625 0.52157,4.1725 0.3477,2.08624 0.69541,3.99864 -5.73718,3.30322 -13.03905,5.56333 -7.30187,2.08624 -16.16842,2.08624 -8.51885,0 -15.47301,-2.60781 -6.95416,-2.60781 -11.99592,-7.99728 -5.04177,-5.56333 -7.82343,-14.08217 -2.78167,-8.51885 -2.78167,-20.51478 0,-9.21426 2.60781,-17.3854 2.60781,-8.17114 7.30187,-14.25603 4.86791,-6.25874 11.82207,-9.73582 7.12802,-3.65093 15.99457,-3.65093 8.86656,0 15.1253,3.30322 6.4326,3.12937 10.25739,8.51885 3.99864,5.38947 5.73718,12.51749 1.91239,7.12801 1.91239,14.77759 z m -9.21426,-2.95552 q -0.17385,-13.73447 -6.60645,-21.38404 -6.4326,-7.64958 -17.73311,-7.64958 -5.73718,0 -10.43124,2.2601 -4.69406,2.08625 -8.34499,5.91104 -3.47708,3.82479 -5.73718,9.21426 -2.08625,5.38947 -2.95552,11.64822 z"
       id="path935" />
  </g>
</svg>
